<?xml version="1.0" encoding="UTF-8" standalone="no"?>
<!DOCTYPE svg PUBLIC "-//W3C//DTD SVG 1.1//EN" "http://www.w3.org/Graphics/SVG/1.1/DTD/svg11.dtd">
<svg width="100%" height="100%" viewBox="0 0 1153 518" version="1.1" xmlns="http://www.w3.org/2000/svg" xmlns:xlink="http://www.w3.org/1999/xlink" xml:space="preserve" xmlns:serif="http://www.serif.com/" style="fill-rule:evenodd;clip-rule:evenodd;stroke-linecap:round;stroke-linejoin:round;stroke-miterlimit:2;">
    <g transform="matrix(1,0,0,1,-1177.819426,-1018.135984)">
        <g transform="matrix(0.832525,0,0,0.610657,331.567754,475.297329)">
            <path d="M2400.512,989.398L2400.512,1636.602C2400.512,1692.045 2367.495,1737.058 2326.827,1737.058L1090.173,1737.058C1049.505,1737.058 1016.488,1692.045 1016.488,1636.602L1016.488,989.398C1016.488,933.955 1049.505,888.942 1090.173,888.942L2326.827,888.942C2367.495,888.942 2400.512,933.955 2400.512,989.398ZM2388,989.398C2388,943.37 2360.589,906 2326.827,906L1090.173,906C1056.411,906 1029,943.37 1029,989.398L1029,1636.602C1029,1682.63 1056.411,1720 1090.173,1720L2326.827,1720C2360.589,1720 2388,1682.63 2388,1636.602L2388,989.398Z"/>
        </g>
    </g>
    <g transform="matrix(1,0,0,1,-1177.819426,-1018.135984)">
        <g transform="matrix(0.51846,0,0,0.218553,688.706768,1048.7567)">
            <g transform="matrix(1,0,0,1,-3.857576,0)">
                <path d="M1380.845,1148.25L1251.92,1987.71L1251.066,1987.71L1122.141,1148.25L1108.053,1148.25L1108.053,2019.434L1116.591,2019.434L1116.591,1178.754L1117.445,1178.754L1246.797,2019.434L1256.189,2019.434L1385.541,1178.754L1386.395,1178.754L1386.395,2019.434L1394.933,2019.434L1394.933,1148.25L1380.845,1148.25Z" style="fill-rule:nonzero;stroke:black;stroke-width:15.71px;"/>
            </g>
            <g>
                <g transform="matrix(1.928788,0,0,4.575543,-1347.657315,-4789.79155)">
                    <path d="M1577.333,1318.398L1577.333,1345.602C1577.333,1354.836 1569.836,1362.333 1560.602,1362.333L1543.805,1362.333C1534.571,1362.333 1527.074,1354.836 1527.074,1345.602L1527.074,1318.398C1527.074,1309.164 1534.571,1301.667 1543.805,1301.667L1560.602,1301.667C1569.836,1301.667 1577.333,1309.164 1577.333,1318.398ZM1569,1318.398C1569,1313.763 1565.237,1310 1560.602,1310L1543.805,1310C1539.17,1310 1535.407,1313.763 1535.407,1318.398L1535.407,1345.602C1535.407,1350.237 1539.17,1354 1543.805,1354L1560.602,1354C1565.237,1354 1569,1350.237 1569,1345.602L1569,1318.398Z"/>
                </g>
                <g transform="matrix(1.80431,0,0,4.682738,-1149.108392,-4957.933278)">
                    <path d="M1590.685,1321.81L1590.685,1464.369C1590.685,1480.368 1576.475,1493.357 1558.971,1493.357L1456.578,1493.357C1439.075,1493.357 1424.865,1480.368 1424.865,1464.369L1424.865,1321.81C1424.865,1305.811 1439.075,1292.822 1456.578,1292.822L1558.971,1292.822C1576.475,1292.822 1590.685,1305.811 1590.685,1321.81ZM1579.55,1321.81C1579.55,1311.428 1570.329,1303 1558.971,1303L1456.578,1303C1445.221,1303 1436,1311.428 1436,1321.81L1436,1464.369C1436,1474.75 1445.221,1483.179 1456.578,1483.179L1558.971,1483.179C1570.329,1483.179 1579.55,1474.75 1579.55,1464.369L1579.55,1321.81Z"/>
                </g>
                <g transform="matrix(1.928788,0,0,4.575543,-1328.369434,-4510.683453)">
                    <path d="M1503.407,1294.583C1526.817,1294.583 1545.824,1313.59 1545.824,1337C1545.824,1360.41 1526.817,1379.417 1503.407,1379.417C1479.997,1379.417 1460.99,1360.41 1460.99,1337C1460.99,1313.59 1479.997,1294.583 1503.407,1294.583ZM1503.407,1305C1485.746,1305 1471.407,1319.339 1471.407,1337C1471.407,1354.661 1485.746,1369 1503.407,1369C1521.068,1369 1535.407,1354.661 1535.407,1337C1535.407,1319.339 1521.068,1305 1503.407,1305ZM1503.407,1321C1512.238,1321 1519.407,1328.169 1519.407,1337C1519.407,1345.831 1512.238,1353 1503.407,1353C1494.576,1353 1487.407,1345.831 1487.407,1337C1487.407,1328.169 1494.576,1321 1503.407,1321ZM1503.407,1331.417C1500.325,1331.417 1497.824,1333.918 1497.824,1337C1497.824,1340.082 1500.325,1342.583 1503.407,1342.583C1506.489,1342.583 1508.99,1340.082 1508.99,1337C1508.99,1333.918 1506.489,1331.417 1503.407,1331.417Z"/>
                </g>
            </g>
            <path d="M2022.912,1148.25L1893.986,1987.71L1893.133,1987.71L1764.207,1148.25L1750.119,1148.25L1750.119,2019.434L1758.658,2019.434L1758.658,1178.754L1759.511,1178.754L1888.864,2019.434L1898.256,2019.434L2027.608,1178.754L2028.462,1178.754L2028.462,2019.434L2037,2019.434L2037,1148.25L2022.912,1148.25Z" style="fill-rule:nonzero;stroke:black;stroke-width:15.71px;"/>
            <g transform="matrix(1,0,0,1,-1.928788,0)">
                <path d="M2091.243,1995.031L2091.243,1577.741L2346.008,1577.741L2346.008,1553.338L2091.243,1553.338L2091.243,1172.653L2362.117,1172.653L2362.117,1148.25L2079.31,1148.25L2079.31,2019.434L2364.503,2019.434L2364.503,1995.031L2091.243,1995.031Z" style="fill-rule:nonzero;stroke:black;stroke-width:15.71px;"/>
            </g>
            <g transform="matrix(1,0,0,1,-3.857576,0)">
                <path d="M2405.076,1148.25L2405.076,2019.434L2415.568,2019.434L2415.568,1178.754L2416.617,1178.754L2672.637,2019.434L2688.376,2019.434L2688.376,1148.25L2677.883,1148.25L2677.883,1988.93L2676.834,1988.93L2420.814,1148.25L2405.076,1148.25Z" style="fill-rule:nonzero;stroke:black;stroke-width:15.71px;"/>
            </g>
            <g transform="matrix(1,0,0,1,-17.359093,4.575543)">
                <path d="M2739.749,1172.653L2878.005,1172.653L2878.005,2019.434L2888.806,2019.434L2888.806,1172.653L3027.602,1172.653L3027.602,1148.25L2739.749,1148.25L2739.749,1172.653Z" style="fill-rule:nonzero;stroke:black;stroke-width:15.71px;"/>
            </g>
        </g>
    </g>
    <g transform="matrix(1,0,0,1,-1177.819426,-1018.135984)">
        <g transform="matrix(0.556217,0,0,0.219511,612.740511,822.546952)">
            <g transform="matrix(1,0,0,1,-1.797859,0)">
                <path d="M1180.64,1965.784L1180.64,1550.315L1418.111,1550.315L1418.111,1526.018L1180.64,1526.018L1180.64,1146.994L1433.127,1146.994L1433.127,1122.697L1169.518,1122.697L1169.518,1990.08L1435.351,1990.08L1435.351,1965.784L1180.64,1965.784Z" style="fill-rule:nonzero;stroke:black;stroke-width:14.78px;"/>
            </g>
            <g transform="matrix(1,0,0,1,-3.595718,0)">
                <path d="M1479.171,1965.784L1479.171,1146.994L1587.043,1146.994C1604.302,1146.994 1621.162,1153.068 1637.623,1165.216C1654.083,1177.364 1668.865,1199.029 1681.97,1230.209C1695.074,1261.39 1705.622,1303.301 1713.612,1355.943C1721.603,1408.586 1725.598,1475.401 1725.598,1556.389C1725.598,1626.039 1721.682,1686.577 1713.852,1738.005C1706.021,1789.432 1695.314,1831.951 1681.73,1865.561C1668.146,1899.171 1652.325,1924.277 1634.267,1940.88C1616.208,1957.483 1597.111,1965.784 1576.975,1965.784L1479.171,1965.784ZM1469.583,1122.697L1469.583,1990.08L1574.578,1990.08C1595.353,1990.08 1615.329,1981.981 1634.506,1965.784C1653.683,1949.586 1670.783,1924.277 1685.805,1889.857C1700.827,1855.437 1712.813,1810.692 1721.762,1755.62C1730.712,1700.548 1735.186,1634.137 1735.186,1556.389C1735.186,1471.351 1730.792,1400.892 1722.002,1345.01C1713.213,1289.128 1701.866,1244.787 1687.963,1211.987C1674.059,1179.187 1658.398,1156.105 1640.979,1142.742C1623.559,1129.379 1606.38,1122.697 1589.44,1122.697L1469.583,1122.697Z" style="fill-rule:nonzero;stroke:black;stroke-width:14.78px;"/>
            </g>
            <g transform="matrix(1,0,0,1,-3.595718,0)">
                <path d="M2028.348,1122.697L2028.348,1666.938C2028.348,1771.412 2018.353,1850.781 1998.364,1905.043C1978.375,1959.305 1947.375,1986.436 1905.365,1986.436C1863.354,1986.436 1832.354,1959.305 1812.365,1905.043C1792.376,1850.781 1782.381,1771.412 1782.381,1666.938L1782.381,1122.697L1772.218,1122.697L1772.218,1666.938C1772.218,1783.561 1783.567,1869.813 1806.267,1925.695C1828.966,1981.576 1861.999,2009.517 1905.365,2009.517C1948.73,2009.517 1981.763,1981.576 2004.463,1925.695C2027.162,1869.813 2038.512,1783.561 2038.512,1666.938L2038.512,1122.697L2028.348,1122.697Z" style="fill-rule:nonzero;stroke:black;stroke-width:14.78px;"/>
            </g>
            <path d="M2346.516,1649.93L2337.886,1649.93C2335.585,1697.713 2331.126,1742.257 2324.51,1783.561C2317.894,1824.864 2309.264,1860.499 2298.621,1890.465C2287.978,1920.43 2275.321,1943.917 2260.65,1960.925C2245.98,1977.932 2229.439,1986.436 2211.029,1986.436C2190.318,1986.436 2171.836,1974.693 2155.583,1951.206C2139.331,1927.719 2125.595,1896.539 2114.376,1857.665C2103.158,1818.79 2094.672,1773.842 2088.919,1722.819C2083.166,1671.797 2080.289,1618.75 2080.289,1563.678C2080.289,1518.324 2082.662,1470.137 2087.409,1419.114C2092.155,1368.091 2099.85,1320.916 2110.493,1277.587C2121.136,1234.259 2135.16,1198.219 2152.563,1169.468C2169.966,1140.717 2191.325,1126.342 2216.639,1126.342C2233.323,1126.342 2248.497,1133.833 2262.16,1148.816C2275.824,1163.799 2287.618,1183.439 2297.542,1207.735C2307.466,1232.031 2315.305,1259.365 2321.058,1289.735C2326.811,1320.106 2330.119,1351.084 2330.982,1382.669L2339.612,1382.669C2339.325,1355.943 2336.592,1326.383 2331.414,1293.987C2326.236,1261.592 2318.541,1231.019 2308.329,1202.268C2298.118,1173.517 2285.389,1149.626 2270.143,1130.594C2254.897,1111.562 2237.062,1102.045 2216.639,1102.045C2190.462,1102.045 2168.168,1116.218 2149.758,1144.564C2131.348,1172.91 2116.39,1209.355 2104.884,1253.898C2093.377,1298.442 2084.963,1348.047 2079.642,1402.714C2074.32,1457.381 2071.659,1511.036 2071.659,1563.678C2071.659,1628.468 2075.111,1688.197 2082.015,1742.864C2088.919,1797.531 2098.483,1844.504 2110.709,1883.783C2122.934,1923.063 2137.605,1953.838 2154.72,1976.11C2171.836,1998.382 2190.606,2009.517 2211.029,2009.517C2230.59,2009.517 2248.137,2000.609 2263.671,1982.791C2279.204,1964.974 2292.652,1940.273 2304.015,1908.687C2315.377,1877.102 2324.654,1839.24 2331.845,1795.101C2339.037,1750.963 2343.927,1702.572 2346.516,1649.93Z" style="fill-rule:nonzero;stroke:black;stroke-width:14.78px;"/>
            <path d="M2384.65,1965.784L2384.65,1550.315L2622.121,1550.315L2622.121,1526.018L2384.65,1526.018L2384.65,1146.994L2637.136,1146.994L2637.136,1122.697L2373.527,1122.697L2373.527,1990.08L2639.361,1990.08L2639.361,1965.784L2384.65,1965.784Z" style="fill-rule:nonzero;stroke:black;stroke-width:14.78px;"/>
            <g transform="matrix(1,0,0,1,-5.393577,0)">
                <path d="M2688.742,1965.784L2688.742,1146.994L2796.614,1146.994C2813.873,1146.994 2830.733,1153.068 2847.193,1165.216C2863.654,1177.364 2878.436,1199.029 2891.54,1230.209C2904.645,1261.39 2915.192,1303.301 2923.183,1355.943C2931.173,1408.586 2935.169,1475.401 2935.169,1556.389C2935.169,1626.039 2931.253,1686.577 2923.423,1738.005C2915.592,1789.432 2904.885,1831.951 2891.301,1865.561C2877.717,1899.171 2861.896,1924.277 2843.837,1940.88C2825.779,1957.483 2806.682,1965.784 2786.546,1965.784L2688.742,1965.784ZM2679.153,1122.697L2679.153,1990.08L2784.148,1990.08C2804.924,1990.08 2824.9,1981.981 2844.077,1965.784C2863.254,1949.586 2880.354,1924.277 2895.376,1889.857C2910.398,1855.437 2922.384,1810.692 2931.333,1755.62C2940.282,1700.548 2944.757,1634.137 2944.757,1556.389C2944.757,1471.351 2940.362,1400.892 2931.573,1345.01C2922.783,1289.128 2911.437,1244.787 2897.533,1211.987C2883.63,1179.187 2867.969,1156.105 2850.549,1142.742C2833.13,1129.379 2815.95,1122.697 2799.011,1122.697L2679.153,1122.697Z" style="fill-rule:nonzero;stroke:black;stroke-width:14.78px;"/>
            </g>
        </g>
    </g>
</svg>
