<svg width="32" height="63" viewBox="0 0 32 63" fill="none" xmlns="http://www.w3.org/2000/svg">
<path d="M31.6083 61.5298C31.6083 62.3466 30.9444 63.0077 30.1282 63.0077H1.47796C0.660949 63.0077 0 62.3466 0 61.5298V1.47724C0 0.661839 0.660949 0 1.47796 0H30.1282C30.9444 0 31.6083 0.661644 31.6083 1.47724V61.5298Z" fill="#242D2D"/>
<path d="M29.6351 7.19659H1.90961V56.1315H29.6351V7.19659Z" fill="white"/>
<path d="M17.5982 59.7263C17.5982 60.7444 16.7722 61.5682 15.7537 61.5682C14.7346 61.5682 13.9086 60.7444 13.9086 59.7263C13.9086 58.7083 14.7346 57.8831 15.7537 57.8831C16.7722 57.8831 17.5982 58.7083 17.5982 59.7263Z" fill="#475461"/>
<path d="M18.9327 12.3422H2.91528V33.6135H18.9327V12.3422Z" fill="#DEFFFE"/>
<path d="M29.3743 12.3352H19.1218V23.7807H29.3743V12.3352Z" fill="#C1FEFC"/>
<path d="M29.3741 33.8495H2.91528V54.23H29.3741V33.8495Z" fill="#DCF7E6"/>
<path d="M29.3743 23.9385H19.0945V33.6135H29.3743V23.9385Z" fill="#242D2D"/>
<path d="M25.8769 11.4246C25.6392 11.4246 25.4459 11.2315 25.4459 10.9941C25.4459 10.757 25.6391 10.5636 25.8769 10.5636C26.1147 10.5636 26.3078 10.7568 26.3078 10.9941C26.3078 11.2313 26.1147 11.4246 25.8769 11.4246ZM25.8769 10.9214C25.8369 10.9214 25.8041 10.954 25.8041 10.9941C25.8041 11.0744 25.9496 11.0744 25.9496 10.9941C25.9496 10.954 25.917 10.9214 25.8769 10.9214Z" fill="#464543"/>
<path d="M24.5655 11.4246C24.3285 11.4246 24.1354 11.2315 24.1354 10.9941C24.1354 10.757 24.3285 10.5636 24.5655 10.5636C24.8031 10.5636 24.9965 10.7568 24.9965 10.9941C24.9963 11.2313 24.8031 11.4246 24.5655 11.4246ZM24.5655 10.9214C24.5259 10.9214 24.4936 10.954 24.4936 10.9941C24.4934 11.0756 24.6383 11.0748 24.6383 10.9941C24.6383 10.9532 24.6063 10.9214 24.5655 10.9214Z" fill="#464543"/>
<path d="M23.254 11.4246C23.0164 11.4246 22.8232 11.2315 22.8232 10.9941C22.8232 10.757 23.0164 10.5636 23.254 10.5636C23.4916 10.5636 23.6849 10.7568 23.6849 10.9941C23.6849 11.2313 23.4916 11.4246 23.254 11.4246ZM23.254 10.9214C23.214 10.9214 23.1812 10.954 23.1812 10.9941C23.1812 11.0744 23.3267 11.0744 23.3267 10.9941C23.3267 10.954 23.294 10.9214 23.254 10.9214Z" fill="#464543"/>
<path d="M27.301 11.4246C27.0633 11.4246 26.87 11.2315 26.87 10.9941C26.87 10.757 27.0633 10.5636 27.301 10.5636C27.538 10.5636 27.7311 10.7568 27.7311 10.9941C27.7311 11.2313 27.5382 11.4246 27.301 11.4246ZM27.301 10.9214C27.261 10.9214 27.2282 10.954 27.2282 10.9941C27.2284 11.0744 27.3731 11.0752 27.3729 10.9941C27.3731 10.954 27.3408 10.9214 27.301 10.9214Z" fill="#464543"/>
<path d="M28.8258 11.4246C28.5882 11.4246 28.3948 11.2315 28.3948 10.9941C28.3948 10.757 28.588 10.5636 28.8258 10.5636C29.0636 10.5636 29.2567 10.7568 29.2567 10.9941C29.2567 11.2313 29.0636 11.4246 28.8258 11.4246ZM28.8258 10.9214C28.7858 10.9214 28.753 10.954 28.753 10.9941C28.753 11.0744 28.8985 11.0744 28.8985 10.9941C28.8985 10.954 28.866 10.9214 28.8258 10.9214Z" fill="#464543"/>
</svg>
