<svg width="72" height="99" viewBox="0 0 72 99" fill="none" xmlns="http://www.w3.org/2000/svg">
<path d="M71.1035 97.4374C71.1035 98.2995 70.4034 98.997 69.5417 98.997H1.56261C0.700153 98.997 0 98.2997 0 97.4374V2.20772C0 1.34398 0.700153 0.647461 1.56261 0.647461H69.5417C70.4034 0.647461 71.1035 1.34418 71.1035 2.20772V97.4374Z" fill="#242D2D"/>
<path d="M68.956 8.83816H1.9549V93.6642H68.956V8.83816Z" fill="white"/>
<path d="M42.328 14.8759H5.21295V64.1643H42.328V14.8759Z" fill="#DEFFFE"/>
<path d="M66.5241 14.8613H42.7666V41.3817H66.5241V14.8613Z" fill="#C1FEFC"/>
<path d="M66.5241 64.7135H5.21295V91.5342H66.5241V64.7135Z" fill="#DCF7E6"/>
<path d="M66.5241 41.7477H42.7029V64.1643H66.5241V41.7477Z" fill="#242D2D"/>
<path d="M58.4209 12.5155C58.0001 12.5155 57.6578 12.1738 57.6578 11.7539C57.6578 11.3339 58.0001 10.9922 58.4209 10.9922C58.8409 10.9922 59.1825 11.3339 59.1825 11.7539C59.1825 12.1738 58.8409 12.5155 58.4209 12.5155ZM58.4209 11.3501C58.1976 11.3501 58.0159 11.5313 58.0159 11.7539C58.0159 11.9764 58.1976 12.1577 58.4209 12.1577C58.6435 12.1577 58.8246 11.9764 58.8246 11.7539C58.8246 11.5313 58.6435 11.3501 58.4209 11.3501Z" fill="#464543"/>
<path d="M55.3812 12.5155C54.9608 12.5155 54.6188 12.1738 54.6188 11.7539C54.6188 11.3339 54.9608 10.9922 55.3812 10.9922C55.8016 10.9922 56.1436 11.3339 56.1436 11.7539C56.1436 12.1738 55.8016 12.5155 55.3812 12.5155ZM55.3812 11.3501C55.1582 11.3501 54.977 11.5313 54.977 11.7539C54.977 11.9764 55.1582 12.1577 55.3812 12.1577C55.6042 12.1577 55.7854 11.9764 55.7854 11.7539C55.7854 11.5313 55.6042 11.3501 55.3812 11.3501Z" fill="#464543"/>
<path d="M52.3414 12.5155C51.9214 12.5155 51.5796 12.1738 51.5796 11.7539C51.5796 11.3339 51.9214 10.9922 52.3414 10.9922C52.7622 10.9922 53.1046 11.3339 53.1046 11.7539C53.1044 12.1738 52.762 12.5155 52.3414 12.5155ZM52.3414 11.3501C52.1188 11.3501 51.9378 11.5313 51.9378 11.7539C51.9378 11.9764 52.1188 12.1577 52.3414 12.1577C52.5648 12.1577 52.7464 11.9764 52.7464 11.7539C52.7464 11.5313 52.5646 11.3501 52.3414 11.3501Z" fill="#464543"/>
<path d="M61.7182 12.5155C61.2978 12.5155 60.9559 12.1738 60.9559 11.7539C60.9559 11.3339 61.2978 10.9922 61.7182 10.9922C62.1386 10.9922 62.4806 11.3339 62.4806 11.7539C62.4806 12.1738 62.1386 12.5155 61.7182 12.5155ZM61.7182 11.3501C61.4953 11.3501 61.314 11.5313 61.314 11.7539C61.314 11.9764 61.4955 12.1577 61.7182 12.1577C61.941 12.1577 62.1225 11.9764 62.1225 11.7539C62.1225 11.5313 61.941 11.3501 61.7182 11.3501Z" fill="#464543"/>
<path d="M65.2525 12.5155C64.8321 12.5155 64.4902 12.1738 64.4902 11.7539C64.4902 11.3339 64.8321 10.9922 65.2525 10.9922C65.673 10.9922 66.0149 11.3339 66.0149 11.7539C66.0149 12.1738 65.673 12.5155 65.2525 12.5155ZM65.2525 11.3501C65.0296 11.3501 64.8483 11.5313 64.8483 11.7539C64.8483 11.9764 65.0296 12.1577 65.2525 12.1577C65.4755 12.1577 65.6568 11.9764 65.6568 11.7539C65.6568 11.5313 65.4755 11.3501 65.2525 11.3501Z" fill="#464543"/>
</svg>
