<svg width="146" height="111" viewBox="0 0 146 111" fill="none" xmlns="http://www.w3.org/2000/svg">
<path d="M146 108.733C146 109.625 145.279 110.345 144.388 110.345L1.68103 110.436C0.790281 110.436 0.0665242 109.715 0.0665242 108.824L3.55547e-07 1.69883C-0.000584892 0.809362 0.721414 0.088869 1.61177 0.088869L144.321 1.93044e-06C145.21 -0.00136228 145.933 0.720496 145.934 1.60918L146 108.733Z" fill="#242D2D"/>
<path d="M144.116 9.24055H2.0802V104.686H144.116V9.24055Z" fill="white"/>
<path d="M63.313 21.7041H5.7356V98.167H63.313V21.7041Z" fill="#DEFFFE"/>
<path d="M100.849 21.681H63.9937V62.8225H100.849V21.681Z" fill="#C1FEFC"/>
<path d="M140.406 21.6161H101.357V98.0789H140.406V21.6161Z" fill="#DCF7E6"/>
<path d="M100.849 63.3908H63.8944V98.1668H100.849V63.3908Z" fill="#242D2D"/>
<path d="M127.148 17.988C126.55 17.988 126.064 17.5016 126.064 16.9043C126.064 16.3075 126.55 15.8219 127.148 15.8219C127.745 15.8219 128.232 16.3075 128.232 16.9043C128.232 17.5018 127.745 17.988 127.148 17.988ZM127.148 16.1797C126.747 16.1797 126.422 16.5046 126.422 16.9043C126.422 17.3046 126.747 17.6302 127.148 17.6302C127.548 17.6302 127.874 17.3046 127.874 16.9043C127.874 16.5046 127.548 16.1797 127.148 16.1797Z" fill="#464543"/>
<path d="M122.433 17.988C121.835 17.988 121.349 17.5016 121.349 16.9043C121.349 16.3075 121.835 15.8219 122.433 15.8219C123.031 15.8219 123.517 16.3075 123.517 16.9043C123.517 17.5018 123.031 17.988 122.433 17.988ZM122.433 16.1797C122.032 16.1797 121.707 16.5046 121.707 16.9043C121.707 17.3046 122.032 17.6302 122.433 17.6302C122.833 17.6302 123.159 17.3046 123.159 16.9043C123.159 16.5046 122.833 16.1797 122.433 16.1797Z" fill="#464543"/>
<path d="M117.718 17.988C117.12 17.988 116.634 17.5016 116.634 16.9043C116.634 16.3075 117.12 15.8219 117.718 15.8219C118.315 15.8219 118.802 16.3075 118.802 16.9043C118.802 17.5018 118.315 17.988 117.718 17.988ZM117.718 16.1797C117.318 16.1797 116.992 16.5046 116.992 16.9043C116.992 17.3046 117.318 17.6302 117.718 17.6302C118.118 17.6302 118.443 17.3046 118.443 16.9043C118.443 16.5046 118.118 16.1797 117.718 16.1797Z" fill="#464543"/>
<path d="M132.264 17.988C131.667 17.988 131.181 17.5016 131.181 16.9043C131.181 16.3075 131.667 15.8219 132.264 15.8219C132.862 15.8219 133.348 16.3075 133.348 16.9043C133.348 17.5018 132.862 17.988 132.264 17.988ZM132.264 16.1797C131.864 16.1797 131.539 16.5046 131.539 16.9043C131.539 17.3046 131.864 17.6302 132.264 17.6302C132.664 17.6302 132.99 17.3046 132.99 16.9043C132.99 16.5046 132.664 16.1797 132.264 16.1797Z" fill="#464543"/>
<path d="M137.746 17.988C137.148 17.988 136.662 17.5016 136.662 16.9043C136.662 16.3075 137.148 15.8219 137.746 15.8219C138.344 15.8219 138.831 16.3075 138.831 16.9043C138.831 17.5018 138.344 17.988 137.746 17.988ZM137.746 16.1797C137.346 16.1797 137.02 16.5046 137.02 16.9043C137.02 17.3046 137.346 17.6302 137.746 17.6302C138.146 17.6302 138.472 17.3046 138.472 16.9043C138.472 16.5046 138.147 16.1797 137.746 16.1797Z" fill="#464543"/>
</svg>
