<svg width="210" height="260" viewBox="0 0 210 260" fill="none" xmlns="http://www.w3.org/2000/svg">
<rect x="2" y="2" width="206" height="256" fill="#D9F8F7" stroke="#242D2D" stroke-width="4"/>
<path d="M94.8516 35.1545C241.861 -13.1583 109.775 96.0494 21 243.837C35.8785 242.474 43.718 241.736 55.6651 243.837C46.7049 234.606 70.1359 192.322 189.301 16H86.311C93.0077 35.2655 65.3989 39.4057 21 16C22.0484 28.5839 22.1065 36.838 21 54.3089C41.5981 16 88.3205 67.4146 94.8516 35.1545Z" fill="#242D2D"/>
<path d="M102.205 192L109.932 145.455H126.523C130.129 145.455 133.015 146.076 135.182 147.318C137.364 148.545 138.864 150.258 139.682 152.455C140.515 154.636 140.697 157.167 140.227 160.045C139.742 162.894 138.72 165.394 137.159 167.545C135.614 169.697 133.545 171.379 130.955 172.591C128.379 173.788 125.288 174.386 121.682 174.386H109.114L110.159 168.341H122.091C124.379 168.341 126.288 168.015 127.818 167.364C129.348 166.712 130.545 165.765 131.409 164.523C132.288 163.28 132.864 161.788 133.136 160.045C133.424 158.273 133.341 156.75 132.886 155.477C132.432 154.189 131.545 153.205 130.227 152.523C128.909 151.826 127.098 151.477 124.795 151.477H115.977L109.227 192H102.205ZM128.659 171L136.682 192H128.682L120.864 171H128.659ZM158.392 145.455L150.665 192H143.642L151.369 145.455H158.392ZM191.915 157.955C191.93 155.667 191.188 153.917 189.688 152.705C188.203 151.492 186.127 150.886 183.46 150.886C181.551 150.886 179.847 151.189 178.347 151.795C176.862 152.386 175.65 153.205 174.71 154.25C173.786 155.28 173.218 156.455 173.006 157.773C172.809 158.879 172.907 159.833 173.301 160.636C173.71 161.439 174.294 162.114 175.051 162.659C175.824 163.189 176.672 163.636 177.597 164C178.521 164.348 179.415 164.636 180.278 164.864L184.642 166.045C186.051 166.409 187.483 166.902 188.938 167.523C190.392 168.144 191.703 168.962 192.869 169.977C194.036 170.992 194.907 172.25 195.483 173.75C196.059 175.25 196.172 177.045 195.824 179.136C195.369 181.773 194.301 184.114 192.619 186.159C190.938 188.205 188.718 189.818 185.96 191C183.203 192.182 180.006 192.773 176.369 192.773C172.884 192.773 169.953 192.22 167.574 191.114C165.21 190.008 163.475 188.439 162.369 186.409C161.263 184.364 160.869 181.939 161.188 179.136H168.256C168.089 180.818 168.392 182.22 169.165 183.341C169.953 184.447 171.059 185.273 172.483 185.818C173.907 186.348 175.521 186.614 177.324 186.614C179.324 186.614 181.15 186.303 182.801 185.682C184.453 185.045 185.816 184.167 186.892 183.045C187.968 181.909 188.627 180.583 188.869 179.068C189.112 177.689 188.915 176.561 188.278 175.682C187.657 174.803 186.718 174.076 185.46 173.5C184.218 172.924 182.801 172.417 181.21 171.977L175.96 170.477C172.4 169.462 169.703 167.97 167.869 166C166.036 164.03 165.377 161.424 165.892 158.182C166.347 155.5 167.468 153.159 169.256 151.159C171.044 149.159 173.271 147.606 175.938 146.5C178.604 145.379 181.498 144.818 184.619 144.818C187.771 144.818 190.453 145.379 192.665 146.5C194.877 147.621 196.513 149.167 197.574 151.136C198.634 153.106 199.006 155.379 198.688 157.955H191.915Z" fill="#242D2D"/>
<path d="M76.6364 203.5L77.6364 197.455H113.659L112.659 203.5H98.1364L91.4091 244H84.4091L91.1364 203.5H76.6364ZM113.892 244L121.619 197.455H150.801L149.801 203.5H127.642L125.278 217.682H145.915L144.915 223.705H124.278L121.915 237.955H144.347L143.347 244H113.892ZM197.75 197.455L190.023 244H183.568L165.591 209.864H165.182L159.477 244H152.455L160.182 197.455H166.682L184.682 231.636H185.114L190.795 197.455H197.75Z" fill="#242D2D"/>
</svg>
