<svg width="206" height="249" viewBox="0 0 206 249" fill="none" xmlns="http://www.w3.org/2000/svg">
<rect x="2" y="2" width="202" height="238" fill="#C1FEFC" stroke="#242D2D" stroke-width="4"/>
<path d="M73 32.5C165 8.5 94.4 83.6 8.00003 234H42.5L175.5 8H73H8.00003V46.5L73 32.5Z" fill="#242D2D"/>
<path d="M100.205 183L107.932 136.455H124.523C128.129 136.455 131.015 137.076 133.182 138.318C135.364 139.545 136.864 141.258 137.682 143.455C138.515 145.636 138.697 148.167 138.227 151.045C137.742 153.894 136.72 156.394 135.159 158.545C133.614 160.697 131.545 162.379 128.955 163.591C126.379 164.788 123.288 165.386 119.682 165.386H107.114L108.159 159.341H120.091C122.379 159.341 124.288 159.015 125.818 158.364C127.348 157.712 128.545 156.765 129.409 155.523C130.288 154.28 130.864 152.788 131.136 151.045C131.424 149.273 131.341 147.75 130.886 146.477C130.432 145.189 129.545 144.205 128.227 143.523C126.909 142.826 125.098 142.477 122.795 142.477H113.977L107.227 183H100.205ZM126.659 162L134.682 183H126.682L118.864 162H126.659ZM156.392 136.455L148.665 183H141.642L149.369 136.455H156.392ZM189.915 148.955C189.93 146.667 189.188 144.917 187.688 143.705C186.203 142.492 184.127 141.886 181.46 141.886C179.551 141.886 177.847 142.189 176.347 142.795C174.862 143.386 173.65 144.205 172.71 145.25C171.786 146.28 171.218 147.455 171.006 148.773C170.809 149.879 170.907 150.833 171.301 151.636C171.71 152.439 172.294 153.114 173.051 153.659C173.824 154.189 174.672 154.636 175.597 155C176.521 155.348 177.415 155.636 178.278 155.864L182.642 157.045C184.051 157.409 185.483 157.902 186.938 158.523C188.392 159.144 189.703 159.962 190.869 160.977C192.036 161.992 192.907 163.25 193.483 164.75C194.059 166.25 194.172 168.045 193.824 170.136C193.369 172.773 192.301 175.114 190.619 177.159C188.938 179.205 186.718 180.818 183.96 182C181.203 183.182 178.006 183.773 174.369 183.773C170.884 183.773 167.953 183.22 165.574 182.114C163.21 181.008 161.475 179.439 160.369 177.409C159.263 175.364 158.869 172.939 159.188 170.136H166.256C166.089 171.818 166.392 173.22 167.165 174.341C167.953 175.447 169.059 176.273 170.483 176.818C171.907 177.348 173.521 177.614 175.324 177.614C177.324 177.614 179.15 177.303 180.801 176.682C182.453 176.045 183.816 175.167 184.892 174.045C185.968 172.909 186.627 171.583 186.869 170.068C187.112 168.689 186.915 167.561 186.278 166.682C185.657 165.803 184.718 165.076 183.46 164.5C182.218 163.924 180.801 163.417 179.21 162.977L173.96 161.477C170.4 160.462 167.703 158.97 165.869 157C164.036 155.03 163.377 152.424 163.892 149.182C164.347 146.5 165.468 144.159 167.256 142.159C169.044 140.159 171.271 138.606 173.938 137.5C176.604 136.379 179.498 135.818 182.619 135.818C185.771 135.818 188.453 136.379 190.665 137.5C192.877 138.621 194.513 140.167 195.574 142.136C196.634 144.106 197.006 146.379 196.688 148.955H189.915Z" fill="#242D2D"/>
<path d="M71.6364 193.5L72.6364 187.455H108.659L107.659 193.5H93.1364L86.4091 234H79.4091L86.1364 193.5H71.6364ZM108.892 234L116.619 187.455H145.801L144.801 193.5H122.642L120.278 207.682H140.915L139.915 213.705H119.278L116.915 227.955H139.347L138.347 234H108.892ZM192.75 187.455L185.023 234H178.568L160.591 199.864H160.182L154.477 234H147.455L155.182 187.455H161.682L179.682 221.636H180.114L185.795 187.455H192.75Z" fill="#242D2D"/>
</svg>
