<?xml version="1.0" standalone="no"?>
<!DOCTYPE svg PUBLIC "-//W3C//DTD SVG 20010904//EN"
 "http://www.w3.org/TR/2001/REC-SVG-20010904/DTD/svg10.dtd">
<svg version="1.0" xmlns="http://www.w3.org/2000/svg"
 width="228.000000pt" height="228.000000pt" viewBox="0 0 228.000000 228.000000"
 preserveAspectRatio="xMidYMid meet">
<metadata>
Created by potrace 1.14, written by Peter Selinger 2001-2017
</metadata>
<g transform="translate(0.000000,228.000000) scale(0.100000,-0.100000)"
fill="#000000" stroke="none">
<path d="M305 2095 l0 -182 43 48 c76 85 161 101 331 62 242 -55 264 -57 308
-28 14 10 32 35 41 56 15 38 18 40 115 70 421 130 598 104 543 -79 -40 -135
-141 -289 -574 -870 -175 -235 -339 -456 -365 -492 -100 -141 -363 -538 -426
-642 l-22 -37 58 5 c96 9 185 10 234 4 l47 -6 -5 32 c-12 74 66 251 237 537
36 60 70 116 75 126 6 9 39 63 75 119 36 56 70 110 75 120 43 72 247 383 560
852 171 256 314 471 319 478 6 9 -98 12 -506 12 l-514 0 4 -40 c15 -157 -234
-159 -563 -6 l-90 42 0 -181z"/>
</g>
</svg>
